Coordinates
version=1
nRows=4
nColumns=124
inDegrees=yes

Units are S.I. units (second, meters, Newtons, ...)
If the header above contains a line with 'inDegrees', this indicates whether rotational values are in degrees (yes) or radians (no).

endheader 
time	pelvis_tilt	pelvis_list	pelvis_rotation	pelvis_tx	pelvis_ty	pelvis_tz	hip_flexion_l	hip_adduction_l	hip_rotation_l	hip_flexion_r	hip_adduction_r	hip_rotation_r	knee_angle_l	knee_angle_r	ankle_angle_l	ankle_angle_r	subtalar_angle_l	subtalar_angle_r	mtp_angle_l	mtp_angle_r	lumbar_extension	lumbar_bending	lumbar_rotation	arm_flex_l	arm_add_l	arm_rot_l	arm_flex_r	arm_add_r	arm_rot_r	elbow_flex_l	elbow_flex_r	glut_med1_l/activation	glut_med2_l/activation	glut_med3_l/activation	glut_min1_l/activation	glut_min2_l/activation	glut_min3_l/activation	semimem_l/activation	semiten_l/activation	bifemlh_l/activation	bifemsh_l/activation	sar_l/activation	add_long_l/activation	add_brev_l/activation	add_mag1_l/activation	add_mag2_l/activation	add_mag3_l/activation	tfl_l/activation	pect_l/activation	grac_l/activation	glut_max1_l/activation	glut_max2_l/activation	glut_max3_l/activation	iliacus_l/activation	psoas_l/activation	quad_fem_l/activation	gem_l/activation	peri_l/activation	rect_fem_l/activation	vas_med_l/activation	vas_int_l/activation	vas_lat_l/activation	med_gas_l/activation	lat_gas_l/activation	soleus_l/activation	tib_post_l/activation	flex_dig_l/activation	flex_hal_l/activation	tib_ant_l/activation	per_brev_l/activation	per_long_l/activation	per_tert_l/activation	ext_dig_l/activation	ext_hal_l/activation	ercspn_l/activation	intobl_l/activation	extobl_l/activation	glut_med1_r/activation	glut_med2_r/activation	glut_med3_r/activation	glut_min1_r/activation	glut_min2_r/activation	glut_min3_r/activation	semimem_r/activation	semiten_r/activation	bifemlh_r/activation	bifemsh_r/activation	sar_r/activation	add_long_r/activation	add_brev_r/activation	add_mag1_r/activation	add_mag2_r/activation	add_mag3_r/activation	tfl_r/activation	pect_r/activation	grac_r/activation	glut_max1_r/activation	glut_max2_r/activation	glut_max3_r/activation	iliacus_r/activation	psoas_r/activation	quad_fem_r/activation	gem_r/activation	peri_r/activation	rect_fem_r/activation	vas_med_r/activation	vas_int_r/activation	vas_lat_r/activation	med_gas_r/activation	lat_gas_r/activation	soleus_r/activation	tib_post_r/activation	flex_dig_r/activation	flex_hal_r/activation	tib_ant_r/activation	per_brev_r/activation	per_long_r/activation	per_tert_r/activation	ext_dig_r/activation	ext_hal_r/activation	ercspn_r/activation	intobl_r/activation	extobl_r/activation	
          0.00000000	         -6.08727233	          1.71857128	         -3.33184900	          0.00000000	          0.99628045	          0.01248459	         29.54427015	          5.06586751	          5.33579028	         -6.06070409	          2.89517676	         12.85950645	        -11.16186266	         -5.18101389	          7.64311428	         10.23384022	         -4.64761805	         -9.13083394	          0.21432804	         19.60537969	          2.20397815	          0.25836735	          1.11429089	          2.57985457	        -13.46342088	         19.34892555	         -2.32611103	        -13.46448481	         19.34881317	         37.00072136	         28.24373746	          0.05000023	          0.05000023	          0.05000025	          0.05000063	          0.05000055	          0.05000056	          0.06854734	          0.05147700	          0.05539510	          0.07817314	          0.05000326	          0.12222172	          0.19107265	          0.14658085	          0.12709995	          0.05000412	          0.05000210	          0.05505682	          0.09412621	          0.05000031	          0.05000027	          0.06795970	          0.09450643	          0.07984350	          0.12222125	          0.05000697	          0.05000086	          0.05750100	          0.06150921	          0.06336980	          0.05653457	          0.05000038	          0.05000111	          0.05000020	          0.05000139	          0.05000379	          0.05000375	          0.42093956	          0.20182170	          0.15688875	          0.15042229	          0.47041705	          0.05406834	          0.05180449	          0.16587054	          0.05372849	          0.41548549	          0.31069779	          0.23834786	          0.21114735	          0.28335438	          0.28873080	          0.05000102	          0.05000079	          0.05000053	          0.06986904	          0.12123843	          0.05000043	          0.05000051	          0.05000134	          0.05000271	          0.05000111	          0.26643049	          0.05000190	          0.05000171	          0.07992857	          0.05004013	          0.05000121	          0.30078643	          0.33656835	          0.05000608	          0.05001430	          0.20732369	          0.19048854	          0.05000161	          0.05000152	          0.05000137	          0.39769654	          0.44528059	          0.30890104	          0.38565788	          0.23745801	          0.23128737	          0.05000029	          0.05000062	          0.05000028	          0.05000136	          0.05000042	          0.05000155	          0.05000005	          0.05000006	          0.05000014	
          0.03380463	         -6.23006992	          1.65752023	         -3.31204683	          0.02895089	          0.99248449	          0.01078885	         28.50996950	          5.51853564	          6.50178139	         -6.93073010	          2.88752118	         11.55628251	        -11.93513382	         -6.56481047	          6.22641418	         10.40654778	         -5.66944494	         -8.14370573	          0.18377835	         22.16588702	          2.72640991	         -0.14726160	          2.30391254	          0.71777774	        -13.46503043	         19.34613717	         -2.40611375	        -13.46350179	         19.34751673	         33.11812704	         30.56649046	          0.16038146	          0.15528470	          0.13081843	          0.06278463	          0.06464860	          0.05016435	          0.05000128	          0.05000277	          0.05000179	          0.05000275	          0.05000236	          0.07817667	          0.12221544	          0.09375750	          0.08129719	          0.08507577	          0.05000189	          0.05000390	          0.06020647	          0.12764405	          0.11892033	          0.08158014	          0.06044908	          0.05107028	          0.07817635	          0.05000453	          0.05000351	          0.05000074	          0.05640938	          0.08220568	          0.07924274	          0.05000007	          0.05000015	          0.05000002	          0.05000010	          0.05000049	          0.05000047	          0.57618073	          0.29459441	          0.18111952	          0.38394544	          0.55277882	          0.23196865	          0.05055677	          0.16469271	          0.05000008	          0.38710033	          0.19873177	          0.15245425	          0.20691826	          0.19233495	          0.18470694	          0.05000086	          0.05000058	          0.05000042	          0.05843120	          0.10652062	          0.05000042	          0.05000047	          0.05000125	          0.05000258	          0.05000086	          0.19942403	          0.05000206	          0.05000199	          0.05114032	          0.05000661	          0.05000124	          0.28533953	          0.28637894	          0.07816818	          0.06189994	          0.13261082	          0.24354309	          0.05000104	          0.05000095	          0.05000095	          0.36233475	          0.41911973	          0.31728472	          0.38161900	          0.24609657	          0.25101426	          0.05117745	          0.05000015	          0.05000008	          0.05000070	          0.05000031	          0.05000231	          0.05883948	          0.05000003	          0.05000015	
          0.06760925	         -6.36701459	          1.57464386	         -3.15890621	          0.05819214	          0.99008220	          0.00880091	         27.44327308	          5.97605128	          7.56642608	         -7.44778157	          2.92665816	         10.11058938	        -12.69961287	         -8.56627521	          4.92504864	         10.01440692	         -6.87591796	         -7.08122484	          0.14837891	         24.72734335	          3.20588293	         -0.59130336	          3.48478816	         -1.26201737	        -13.46514994	         19.34874223	         -2.79042803	        -13.46739306	         19.34502277	         29.24355489	         33.34191214	          0.26283609	          0.25845873	          0.24812874	          0.11653468	          0.12487175	          0.15032960	          0.05000130	          0.05000351	          0.05000250	          0.05000119	          0.05000181	          0.05000462	          0.07817255	          0.05997060	          0.05200113	          0.07054575	          0.05000271	          0.05000477	          0.05000240	          0.18555672	          0.15928542	          0.08030687	          0.05000042	          0.05000042	          0.05000429	          0.05000405	          0.14792733	          0.05000094	          0.16377751	          0.17714504	          0.15575814	          0.05000009	          0.05000020	          0.05000003	          0.05000024	          0.05000112	          0.05000094	          0.67350091	          0.21359440	          0.13513631	          0.31838553	          0.55800880	          0.24338956	          0.05579425	          0.11699924	          0.05000009	          0.34666410	          0.12711438	          0.09751397	          0.14827559	          0.12302331	          0.11814387	          0.05000155	          0.05000091	          0.05000056	          0.05000101	          0.06813465	          0.05000216	          0.05000179	          0.05000331	          0.05000483	          0.05000357	          0.12755769	          0.05000547	          0.05000227	          0.05000292	          0.05000188	          0.05000159	          0.23652637	          0.24557173	          0.05000078	          0.05000231	          0.08482163	          0.20961861	          0.06225310	          0.07529734	          0.05281847	          0.30018077	          0.35866578	          0.29220682	          0.35518976	          0.21357192	          0.22439083	          0.05000016	          0.05000137	          0.05000187	          0.05000103	          0.05000030	          0.05000088	          0.07326707	          0.05000003	          0.05000014	
          0.10141388	         -6.49651060	          1.44306005	         -2.90865898	          0.08701676	          0.98970855	          0.00658260	         26.36513345	          6.40250440	          8.55613938	         -7.54328968	          2.99022160	          8.55847726	        -13.49722755	        -11.19429908	          4.20200721	          9.02202300	         -8.20687332	         -5.78168291	          0.11136011	         26.89417139	          3.61572053	         -1.00490810	          4.62114531	         -3.28871509	        -13.46363835	         19.34865816	         -3.35188416	        -13.46496288	         19.34796222	         25.51447590	         36.55950546	          0.33562208	          0.33204561	          0.33210176	          0.13897396	          0.16903603	          0.17658612	          0.05000079	          0.05000211	          0.05000140	          0.05000075	          0.05000159	          0.05000107	          0.05000172	          0.05000193	          0.05000344	          0.07741467	          0.05000320	          0.05000370	          0.05000189	          0.23051832	          0.18952329	          0.09166866	          0.05000039	          0.05000041	          0.05000143	          0.05000502	          0.14132329	          0.05000345	          0.22551795	          0.24228704	          0.20720638	          0.05000009	          0.05000020	          0.05000004	          0.05000032	          0.05000121	          0.05000101	          0.68677370	          0.14040067	          0.10245082	          0.20541351	          0.52496828	          0.24018425	          0.05176727	          0.08541808	          0.05000008	          0.27488804	          0.08130594	          0.06237269	          0.10162615	          0.07868969	          0.07556843	          0.05000281	          0.05000106	          0.05000062	          0.05000099	          0.05000279	          0.13155960	          0.05794119	          0.05000700	          0.05000631	          0.05000494	          0.08159014	          0.05001740	          0.05000299	          0.05000275	          0.05000175	          0.05000181	          0.20524858	          0.23222359	          0.05000076	          0.05000242	          0.05425444	          0.13766133	          0.08457413	          0.09109235	          0.11184408	          0.20746882	          0.26835634	          0.23470679	          0.33402442	          0.21788231	          0.21819410	          0.05000025	          0.05000098	          0.05000075	          0.05000102	          0.05000032	          0.05000110	          0.08989018	          0.05000004	          0.05000015	
